<svg width="18" height="15" viewBox="0 0 18 15" fill="none" xmlns="http://www.w3.org/2000/svg">
<path d="M16.1827 4.03744C16.1937 4.18844 16.1937 4.33944 16.1937 4.49144C16.1937 9.09644 12.6877 14.4034 6.28069 14.4034C4.30669 14.4034 2.47269 13.8314 0.929688 12.8394C1.21069 12.8714 1.48069 12.8814 1.77169 12.8814C3.40069 12.8814 4.89869 12.3314 6.09669 11.3934C4.56469 11.3614 3.28169 10.3574 2.83969 8.97644C3.05469 9.00844 3.27069 9.03044 3.49569 9.03044C3.80969 9.03044 4.12269 8.98744 4.41369 8.91244C2.81769 8.58844 1.61969 7.18644 1.61969 5.49344C1.61969 5.48244 1.61969 5.46044 1.61969 5.45044C2.08369 5.70844 2.62269 5.87044 3.19469 5.89244C2.25669 5.26644 1.64169 4.19844 1.64169 2.99144C1.64169 2.34444 1.81469 1.75044 2.11669 1.23244C3.83169 3.34744 6.40969 4.72844 9.30069 4.87844C9.24569 4.61944 9.21369 4.34944 9.21369 4.07944C9.21369 2.16044 10.7677 0.596436 12.6977 0.596436C13.7007 0.596436 14.6067 1.01644 15.2437 1.69644C16.0307 1.54544 16.7847 1.25444 17.4547 0.855436C17.1957 1.66444 16.6457 2.34444 15.9227 2.77444C16.6247 2.69944 17.3037 2.50544 17.9297 2.23544C17.4547 2.92544 16.8617 3.54144 16.1827 4.03744Z" fill="white"/>
</svg>
